<?xml version="1.0" standalone="no"?>
<!DOCTYPE svg PUBLIC "-//W3C//DTD SVG 20010904//EN"
 "http://www.w3.org/TR/2001/REC-SVG-20010904/DTD/svg10.dtd">
<svg version="1.0" xmlns="http://www.w3.org/2000/svg"
 width="1583.000000pt" height="2048.000000pt" viewBox="0 0 1583.000000 2048.000000"
 preserveAspectRatio="xMidYMid meet">

<g transform="translate(0.000000,2048.000000) scale(0.100000,-0.100000)"
fill="#000000" stroke="none">
<path d="M10690 15613 c-63 -1 -286 -9 -495 -18 -738 -29 -1222 -36 -1780 -26
-291 6 -574 11 -627 11 l-98 0 0 -367 c0 -516 -26 -2131 -45 -2798 -26 -916
-37 -1239 -60 -1785 -17 -394 -42 -919 -50 -1050 -3 -47 -12 -200 -20 -340
-39 -658 -119 -1648 -200 -2453 -14 -136 -25 -253 -25 -260 0 -9 275 -12 1325
-12 l1325 0 0 330 c0 618 53 2995 85 3800 3 72 7 200 10 285 20 569 54 1427
70 1740 3 58 12 238 20 400 19 385 24 472 31 546 l5 61 112 6 c62 4 294 12
517 18 954 29 1384 -48 1647 -294 156 -147 238 -335 250 -577 23 -468 -237
-908 -652 -1104 -151 -72 -350 -131 -550 -163 -171 -28 -610 -25 -800 5 -77
12 -159 25 -182 29 l-42 6 125 -369 c70 -203 166 -486 214 -629 49 -143 157
-460 240 -705 418 -1223 551 -1638 705 -2190 100 -360 307 -1099 330 -1180 4
-13 172 -15 1429 -15 1420 0 1424 0 1416 20 -110 282 -213 526 -605 1445 -257
602 -512 1203 -566 1335 -144 354 -461 1186 -456 1199 3 6 51 31 108 56 382
164 727 357 939 527 436 348 737 854 855 1439 44 216 58 369 58 639 1 421 -57
730 -200 1063 -187 438 -550 808 -1011 1028 -460 220 -894 303 -1792 344 -195
8 -1228 11 -1560 3z"/>
<path d="M726 15548 c3 -24 25 -351 49 -728 25 -377 52 -779 60 -895 8 -115
15 -216 15 -222 0 -10 323 -13 1580 -13 l1580 0 0 -102 c0 -184 -42 -1585 -55
-1828 -2 -52 -7 -156 -10 -230 -38 -884 -108 -1682 -176 -1999 -99 -458 -319
-765 -662 -926 -324 -152 -689 -187 -1192 -114 -367 52 -787 176 -1328 391
l-137 55 0 -28 c0 -15 9 -141 20 -281 28 -369 66 -950 90 -1373 21 -393 30
-538 33 -541 7 -6 472 -111 657 -148 1190 -238 2154 -279 2925 -125 729 146
1404 490 1736 886 191 227 329 504 409 823 98 383 120 705 160 2300 19 747 75
2120 95 2355 3 33 24 348 45 700 22 352 47 741 55 865 57 886 75 1203 70 1209
-4 3 -1360 7 -3015 9 l-3008 3 4 -43z"/>
</g>
</svg>
