<?xml version="1.0" standalone="no"?>
<!DOCTYPE svg PUBLIC "-//W3C//DTD SVG 20010904//EN"
 "http://www.w3.org/TR/2001/REC-SVG-20010904/DTD/svg10.dtd">
<svg version="1.0" xmlns="http://www.w3.org/2000/svg"
 width="1583.000000pt" height="2048.000000pt" viewBox="0 0 1583.000000 2048.000000"
 preserveAspectRatio="xMidYMid meet">

<g transform="translate(0.000000,2048.000000) scale(0.100000,-0.100000)"
fill="#000000" stroke="none">
<path d="M3855 13468 c-121 -5 -347 -7 -502 -4 l-283 4 0 -266 c0 -808 -46
-1799 -115 -2492 -14 -135 -25 -248 -25 -252 0 -5 211 -8 469 -8 l469 0 6 243
c19 800 29 1129 41 1437 15 343 34 702 40 708 1 1 119 4 261 5 287 2 369 -7
469 -53 115 -51 172 -150 163 -280 -10 -129 -93 -257 -206 -314 -123 -62 -297
-87 -471 -67 -57 7 -105 11 -106 9 -2 -2 68 -201 156 -442 207 -571 241 -670
334 -983 l79 -263 507 0 508 0 -28 68 c-16 37 -110 245 -209 463 -165 360
-342 773 -342 797 0 5 45 28 101 52 113 48 233 117 304 176 113 92 223 266
260 411 24 97 35 243 25 341 -22 202 -74 317 -205 448 -76 76 -105 97 -185
137 -162 79 -294 109 -560 127 -172 12 -647 11 -955 -2z"/>
<path d="M595 13433 c2 -21 12 -144 20 -273 9 -129 18 -254 21 -277 l5 -43
561 0 561 0 -6 -270 c-13 -505 -42 -925 -76 -1095 -40 -196 -137 -307 -316
-361 -80 -25 -295 -25 -415 0 -98 20 -237 61 -360 104 -46 17 -86 29 -89 27
-2 -3 2 -73 8 -157 7 -84 18 -244 25 -356 7 -111 17 -207 22 -211 12 -12 334
-75 494 -98 96 -13 190 -17 410 -17 257 0 295 2 383 22 279 62 510 180 618
315 89 112 139 253 159 444 5 57 14 259 20 450 11 397 26 733 40 943 5 80 21
309 35 510 14 201 25 368 25 373 0 4 -484 7 -1075 7 l-1075 0 5 -37z"/>
<path d="M6321 12379 c-264 -31 -510 -157 -654 -334 -57 -71 -128 -214 -152
-305 -22 -88 -30 -267 -16 -360 15 -95 59 -224 102 -298 19 -31 70 -93 114
-137 116 -116 217 -171 414 -222 118 -31 374 -43 499 -24 293 46 497 162 633
362 174 256 194 627 51 904 -45 86 -180 227 -267 277 -205 119 -462 167 -724
137z m274 -478 c63 -28 119 -89 145 -157 66 -175 12 -437 -111 -534 -64 -50
-108 -65 -200 -65 -64 0 -84 4 -134 30 -112 57 -165 163 -165 329 0 227 100
381 270 417 52 11 146 2 195 -20z"/>
<path d="M8525 12381 c-150 -24 -247 -73 -342 -170 l-63 -65 6 102 7 102 -300
0 -300 0 -6 -212 c-10 -305 -24 -615 -47 -993 -11 -181 -20 -349 -20 -373 l0
-42 318 2 317 3 6 220 c10 367 27 606 51 712 16 77 68 163 117 198 34 24 52
29 96 29 68 0 101 -22 135 -90 24 -47 25 -55 23 -229 -2 -156 -17 -461 -39
-757 l-7 -88 316 0 315 0 6 143 c3 78 10 255 16 393 11 284 28 402 69 489 49
103 94 138 181 139 45 1 65 -4 86 -20 74 -54 88 -115 79 -339 -7 -182 -32
-624 -41 -732 l-7 -73 315 0 315 0 7 153 c8 185 11 251 34 622 9 160 17 351
17 425 -1 118 -4 143 -25 195 -27 69 -110 159 -179 194 -116 59 -316 84 -471
57 -138 -23 -237 -75 -323 -166 l-66 -70 -36 55 c-58 86 -134 138 -250 169
-71 19 -239 28 -310 17z"/>
<path d="M11040 12383 c-92 -10 -213 -38 -290 -66 -241 -91 -399 -282 -482
-583 -18 -66 -22 -107 -22 -244 -1 -143 2 -177 22 -250 39 -142 85 -223 182
-321 72 -74 99 -93 180 -132 158 -76 250 -91 575 -92 238 0 287 3 411 24 78
12 145 26 150 30 5 3 24 94 42 201 19 107 36 208 39 224 5 27 4 29 -18 22
-427 -122 -683 -127 -845 -15 -62 42 -100 105 -114 188 -6 37 -10 74 -8 82 3
12 88 15 557 19 l555 5 9 30 c5 17 9 91 10 165 1 156 -14 231 -70 350 -49 102
-167 221 -273 272 -148 73 -412 112 -610 91z m228 -389 c84 -35 132 -117 132
-226 l0 -48 -260 0 -261 0 6 38 c10 59 66 162 106 194 20 16 54 36 75 43 53
19 156 19 202 -1z"/>
<path d="M12990 12379 c-75 -14 -184 -75 -252 -139 -35 -33 -64 -60 -65 -60
-2 0 0 38 3 85 l7 85 -307 0 -306 0 0 -297 c0 -384 -6 -505 -45 -1053 -8 -113
-15 -220 -15 -237 l0 -33 318 0 317 0 -3 168 c-5 203 13 527 34 630 29 142 99
243 206 299 50 27 60 28 185 28 80 0 136 -4 143 -11 7 -7 4 -34 -11 -90 -27
-101 -36 -279 -20 -380 29 -177 96 -311 215 -430 168 -168 411 -254 721 -254
382 0 662 129 834 383 161 238 182 606 49 877 -60 121 -186 247 -313 312 -204
103 -426 144 -656 119 -358 -39 -635 -207 -768 -466 -24 -47 -31 -54 -31 -35
-2 104 -20 484 -24 487 -20 21 -139 27 -216 12z m1268 -471 c97 -43 152 -110
176 -218 20 -85 20 -155 1 -243 -29 -139 -91 -228 -190 -277 -70 -34 -200 -35
-262 -2 -66 34 -110 78 -140 140 -27 54 -28 64 -28 197 1 122 4 147 24 198 43
109 122 186 218 213 53 15 156 11 201 -8z"/>
</g>
</svg>
